name rise43.5482peak65.4966fall89.1036.mot
datacolumns 19
datarows 18
range 0.84332500000000 0.87165700000000
endheader
time	ground_force1_vx	ground_force1_vy	ground_force1_vz	ground_force1_px	ground_force1_py	ground_force1_pz	ground_force2_vx	ground_force2_vy	ground_force2_vz	ground_force2_px	ground_force2_py	ground_force2_pz	ground_torque1_x	ground_torque1_y	ground_torque1_z	ground_torque2_x	ground_torque2_y	ground_torque2_z	
0.84332500000000	55.56345100000000	803.85778500000004	80.25047400000000	0.26523700000000	0.00000000000000	0.15021300000000	0.00000000000000	0.00000000000000	0.00000000000000	0.00000000000000	0.00000000000000	0.00000000000000	0.00000000000000	26.67457700000000	0.00000000000000	0.00000000000000	0.00000000000000	0.00000000000000	
0.84500500000000	54.88689800000000	806.60363900000004	80.36577000000000	0.26443700000000	0.00000000000000	0.15020700000000	0.00000000000000	0.00000000000000	0.00000000000000	0.00000000000000	0.00000000000000	0.00000000000000	0.00000000000000	26.76470900000000	0.00000000000000	0.00000000000000	0.00000000000000	0.00000000000000	
0.84665900000000	54.21067800000000	809.14623900000004	80.46727199999999	0.26363700000000	0.00000000000000	0.15020000000000	0.00000000000000	0.00000000000000	0.00000000000000	0.00000000000000	0.00000000000000	0.00000000000000	0.00000000000000	26.84759200000000	0.00000000000000	0.00000000000000	0.00000000000000	0.00000000000000	
0.84832400000000	53.53536900000000	811.48525900000004	80.55502000000000	0.26283500000000	0.00000000000000	0.15019300000000	0.00000000000000	0.00000000000000	0.00000000000000	0.00000000000000	0.00000000000000	0.00000000000000	0.00000000000000	26.92312400000000	0.00000000000000	0.00000000000000	0.00000000000000	0.00000000000000	
0.84998800000000	52.86149000000000	813.62071800000001	80.62901300000000	0.26203000000000	0.00000000000000	0.15018400000000	0.00000000000000	0.00000000000000	0.00000000000000	0.00000000000000	0.00000000000000	0.00000000000000	0.00000000000000	26.99119200000000	0.00000000000000	0.00000000000000	0.00000000000000	0.00000000000000	
0.85165800000000	52.18950300000000	815.55298300000004	80.68920900000001	0.26122100000000	0.00000000000000	0.15017500000000	0.00000000000000	0.00000000000000	0.00000000000000	0.00000000000000	0.00000000000000	0.00000000000000	0.00000000000000	27.05168000000000	0.00000000000000	0.00000000000000	0.00000000000000	0.00000000000000	
0.85332500000000	51.51981400000000	817.28277100000003	80.73553000000000	0.26040600000000	0.00000000000000	0.15016600000000	0.00000000000000	0.00000000000000	0.00000000000000	0.00000000000000	0.00000000000000	0.00000000000000	0.00000000000000	27.10447000000000	0.00000000000000	0.00000000000000	0.00000000000000	0.00000000000000	
0.85499000000000	50.85278100000000	818.81114500000001	80.76786700000000	0.25958500000000	0.00000000000000	0.15015600000000	0.00000000000000	0.00000000000000	0.00000000000000	0.00000000000000	0.00000000000000	0.00000000000000	0.00000000000000	27.14944100000000	0.00000000000000	0.00000000000000	0.00000000000000	0.00000000000000	
0.85665700000000	50.18871300000000	820.13951799999995	80.78608100000000	0.25875700000000	0.00000000000000	0.15014600000000	0.00000000000000	0.00000000000000	0.00000000000000	0.00000000000000	0.00000000000000	0.00000000000000	0.00000000000000	27.18647600000000	0.00000000000000	0.00000000000000	0.00000000000000	0.00000000000000	
0.85832400000000	49.52787300000000	821.26964599999997	80.79001000000000	0.25792000000000	0.00000000000000	0.15013500000000	0.00000000000000	0.00000000000000	0.00000000000000	0.00000000000000	0.00000000000000	0.00000000000000	0.00000000000000	27.21545800000000	0.00000000000000	0.00000000000000	0.00000000000000	0.00000000000000	
0.86000400000000	48.87048400000000	822.20362499999999	80.77947399999999	0.25707400000000	0.00000000000000	0.15012400000000	0.00000000000000	0.00000000000000	0.00000000000000	0.00000000000000	0.00000000000000	0.00000000000000	0.00000000000000	27.23627800000000	0.00000000000000	0.00000000000000	0.00000000000000	0.00000000000000	
0.86166000000000	48.21673300000000	822.94388700000002	80.75427800000000	0.25621700000000	0.00000000000000	0.15011200000000	0.00000000000000	0.00000000000000	0.00000000000000	0.00000000000000	0.00000000000000	0.00000000000000	0.00000000000000	27.24883100000000	0.00000000000000	0.00000000000000	0.00000000000000	0.00000000000000	
0.86332700000000	47.56676800000000	823.49319300000002	80.71421900000000	0.25535000000000	0.00000000000000	0.15010000000000	0.00000000000000	0.00000000000000	0.00000000000000	0.00000000000000	0.00000000000000	0.00000000000000	0.00000000000000	27.25302400000000	0.00000000000000	0.00000000000000	0.00000000000000	0.00000000000000	
0.86499800000000	46.92071100000000	823.85462500000006	80.65908600000000	0.25447100000000	0.00000000000000	0.15008800000000	0.00000000000000	0.00000000000000	0.00000000000000	0.00000000000000	0.00000000000000	0.00000000000000	0.00000000000000	27.24877300000000	0.00000000000000	0.00000000000000	0.00000000000000	0.00000000000000	
0.86666100000000	46.27865400000000	824.03157599999997	80.58866999999999	0.25358000000000	0.00000000000000	0.15007500000000	0.00000000000000	0.00000000000000	0.00000000000000	0.00000000000000	0.00000000000000	0.00000000000000	0.00000000000000	27.23600700000000	0.00000000000000	0.00000000000000	0.00000000000000	0.00000000000000	
0.86832900000000	45.64066500000000	824.02774399999998	80.50276900000000	0.25267600000000	0.00000000000000	0.15006200000000	0.00000000000000	0.00000000000000	0.00000000000000	0.00000000000000	0.00000000000000	0.00000000000000	0.00000000000000	27.21467000000000	0.00000000000000	0.00000000000000	0.00000000000000	0.00000000000000	
0.86999000000000	45.00679300000000	823.84711700000003	80.40118600000000	0.25175900000000	0.00000000000000	0.15004900000000	0.00000000000000	0.00000000000000	0.00000000000000	0.00000000000000	0.00000000000000	0.00000000000000	0.00000000000000	27.18472100000000	0.00000000000000	0.00000000000000	0.00000000000000	0.00000000000000	
0.87165700000000	44.37706900000000	823.49396500000000	80.28374200000000	0.25082900000000	0.00000000000000	0.15003500000000	0.00000000000000	0.00000000000000	0.00000000000000	0.00000000000000	0.00000000000000	0.00000000000000	0.00000000000000	27.14613800000000	0.00000000000000	0.00000000000000	0.00000000000000	0.00000000000000	
